<?xml version="1.0" encoding="utf-8"?>
<!-- Generator: Adobe Illustrator 25.0.0, SVG Export Plug-In . SVG Version: 6.00 Build 0)  -->
<svg version="1.1" id="Layer_1" xmlns="http://www.w3.org/2000/svg" xmlns:xlink="http://www.w3.org/1999/xlink" x="0px" y="0px"
	 viewBox="0 0 16 16" style="enable-background:new 0 0 16 16;" xml:space="preserve">
<style type="text/css">
	.st0{fill:#00B479;}
</style>
<path class="st0" d="M14,0H2C0.9,0,0,0.9,0,2v12c0,1.1,0.9,2,2,2h12c1.1,0,2-0.9,2-2V2C16,0.9,15.1,0,14,0z M4.65,6.42V6.24V6.2V6.1
	V5.78V5.36V5.18c0-0.58,0.47-1.06,1.06-1.06h0.18h0.18h0.15h0.17h0.04H6.5l-0.01,0h1.41c0.01,0,0.02,0,0.03,0h1.54
	c0.12,0,0.21,0.09,0.21,0.21c0,0.12-0.09,0.21-0.21,0.21H8.49v0H7.4c-0.12,0-0.21,0.09-0.21,0.21c0,0.1,0.08,0.19,0.18,0.21h1.51
	c0.12,0,0.21,0.1,0.21,0.21c0,0.11-0.09,0.21-0.21,0.21H8.49H8.38c-0.12,0-0.21,0.1-0.21,0.21c0,0.12,0.09,0.21,0.21,0.21h1.1
	c0.12,0,0.21,0.1,0.21,0.21c0,0.11-0.09,0.21-0.21,0.21H8.49v0H6.43H6.39H6.26c-0.04,0-0.07,0-0.11,0l0,0
	c-0.15,0-0.27,0.01-0.4,0.02C5.6,6.26,5.46,6.29,5.33,6.33c-0.4,0.1-0.59,0.26-0.68,0.38V6.42z M9.15,8.6H8.46H7.92
	c-0.12,0-0.21,0.1-0.21,0.21c0,0.12,0.09,0.21,0.21,0.21h0.32h0.42c0.12,0,0.21,0.09,0.21,0.21c0,0.12-0.09,0.21-0.21,0.21H8.24v0
	H7.44H7.36c0,0-0.39-0.02-0.51,0.35C6.83,9.84,6.82,9.89,6.82,9.92v0.39v0.18v0.67c-0.02,0.26-0.18,0.7-0.96,0.7H4.65V10.5v-0.18
	V9.44V9.4V8.99v-0.6c0-0.57,0.44-1.02,1-1.05h0.92h0.1H6.8h0.15h0.83h0.57c0.01,0,0.02,0,0.03,0c0.1,0.01,0.18,0.1,0.18,0.21
	c0,0.12-0.09,0.21-0.21,0.21H7.78v0H7.33c-0.12,0-0.21,0.09-0.21,0.21c0,0.12,0.09,0.21,0.21,0.21h0.25c0.01,0,0.02,0,0.04,0h1.54
	c0.01,0,0.02,0,0.04,0c0.1,0.02,0.18,0.1,0.18,0.21C9.37,8.5,9.27,8.6,9.15,8.6z M9.74,7.76H9.67H9.39H9.25H9.1H9.02
	c-0.12,0-0.21-0.09-0.21-0.21c0-0.11,0.08-0.19,0.18-0.21c0.01,0,0.02,0,0.03,0H9.1h0.16h0.13h0.35c0.12,0,0.21,0.1,0.21,0.21
	C9.95,7.66,9.85,7.76,9.74,7.76z M10.3,5.39H9.95H9.82H9.66H9.59c-0.12,0-0.21-0.09-0.21-0.21s0.09-0.21,0.21-0.21h0.08h0.16h0.13
	h0.35c0.12,0,0.21,0.09,0.21,0.21S10.42,5.39,10.3,5.39z M11.14,4.55h-0.17h-0.56h-0.25c-0.12,0-0.21-0.09-0.21-0.21
	s0.09-0.21,0.21-0.21h0.25h0.56h0.17c0.12,0,0.21,0.09,0.21,0.21S11.25,4.55,11.14,4.55z"/>
</svg>
