<svg height="329.97333" viewBox="0 0 497.92001 329.97333" width="497.92001" xmlns="http://www.w3.org/2000/svg"><g transform="matrix(.13333333 0 0 -.13333333 0 329.97333)"><path d="m118.688 2450.84h3497.022c52.08 0 94.69-42.6 94.69-94.68v-2237.469c0-52.0816-42.61-94.6871-94.69-94.6871h-3497.022c-52.0825 0-94.688 42.6055-94.688 94.6871v2237.469c0 52.08 42.6055 94.68 94.688 94.68" fill="#7790b5" fill-rule="evenodd"/><path d="m118.688 2474.85h3497.022c32.67 0 62.35-13.35 83.84-34.85 21.5-21.49 34.86-51.18 34.86-83.84v-2237.469c0-32.6676-13.36-62.3433-34.86-83.8472-21.49-21.4961-51.17-34.8438-83.84-34.8438h-3497.022c-32.6607 0-62.3442 13.3477-83.8442 34.8438-21.4922 21.5039-34.8438 51.1796-34.8438 83.8472v2237.469c0 32.66 13.3516 62.35 34.8438 83.84 21.5 21.5 51.1835 34.85 83.8442 34.85zm3497.022-48.01h-3497.022c-19.4146 0-37.0864-7.95-49.9028-20.77-12.8243-12.82-20.7813-30.5-20.7813-49.91v-2237.469c0-19.4254 7.957-37.0894 20.7813-49.9137 12.8164-12.8085 30.4882-20.7695 49.9028-20.7695h3497.022c19.42 0 37.09 7.961 49.91 20.7695 12.82 12.8243 20.78 30.4883 20.78 49.9137v2237.469c0 19.41-7.96 37.09-20.78 49.91s-30.49 20.77-49.91 20.77" fill="#3d4445"/><path d="m3710.4 1807.05v-397.49h-3686.4v447.84h57.6016 3571.1984 57.6z" fill="#707e90"/><path d="m3734.41 1807.05v-421.5h-3734.41v495.86h24 57.6016 3571.1984 57.6 24.01v-24.01zm-48.01-347.14v373.49h-3638.3961v-399.84h33.5977 3571.1984 33.6z" fill="#3d4445"/><text fill="#fff" font-family="Arial" font-size="2.53576" transform="matrix(10 0 0 -10 255.324 1032.21)"><tspan x="0 13.006547 26.013094 39.019642 52.026188 62.778267 75.784813 88.791359 101.7979 114.80445 125.55653 138.56308 151.56963 164.57617 177.58272 188.33479 201.34135 214.3479 227.35445" y="0">1234 5678 9876 5432</tspan></text><path d="m772.793 742.52c45.93 45.925 109.387 74.343 179.465 74.343 70.082 0 133.532-28.418 179.462-74.343 45.93-45.926 74.34-109.375 74.34-179.465 0-70.078-28.41-133.535-74.34-179.461-45.93-45.93-109.38-74.336-179.462-74.336-70.078 0-133.535 28.406-179.465 74.336-45.926 45.926-74.34 109.383-74.34 179.461 0 70.09 28.414 133.539 74.34 179.465" fill="#f3bb72"/><path d="m755.824 759.492c25.516 25.508 56.129 46.121 90.285 60.274 32.817 13.593 68.676 21.093 106.149 21.093 37.469 0 73.332-7.5 106.142-21.093 34.16-14.153 64.78-34.766 90.29-60.274s46.13-56.133 60.27-90.281c13.6-32.816 21.1-68.684 21.1-106.156 0-37.469-7.5-73.328-21.1-106.153-14.14-34.14-34.76-64.765-60.27-90.269-25.51-25.52-56.13-46.137-90.29-60.285-32.81-13.594-68.673-21.094-106.142-21.094-37.473 0-73.332 7.5-106.149 21.094-34.156 14.148-64.769 34.765-90.285 60.285-25.511 25.504-46.133 56.129-60.273 90.281-13.598 32.813-21.098 68.672-21.098 106.141 0 37.472 7.5 73.34 21.098 106.156 14.148 34.148 34.762 64.773 60.273 90.281zm108.473 16.024c-27.969-11.582-53.25-28.68-74.535-49.961-21.285-21.289-38.379-46.571-49.961-74.532-11.18-26.98-17.344-56.687-17.344-87.968 0-31.278 6.164-60.985 17.344-87.957 11.582-27.961 28.676-53.254 49.961-74.532 21.285-21.289 46.566-38.378 74.535-49.972 26.973-11.168 56.68-17.34 87.961-17.34 31.277 0 60.982 6.172 87.962 17.34 27.96 11.594 53.25 28.683 74.53 49.972 21.29 21.278 38.39 46.571 49.97 74.532 11.17 26.972 17.34 56.679 17.34 87.957 0 31.281-6.17 60.988-17.34 87.968-11.58 27.961-28.68 53.243-49.97 74.532-21.28 21.281-46.57 38.379-74.53 49.961-26.98 11.172-56.685 17.343-87.962 17.343-31.281 0-60.988-6.171-87.961-17.343" fill="#3d4445"/><path d="m1712.35 382.637h360.85v360.859h-360.85z" fill="#707e90" fill-rule="evenodd"/><path d="m1712.35 767.488h384.86v-408.855h-408.87v24.004 360.847 24.004zm336.85-48.008h-312.85v-312.847h312.85z" fill="#3d4445"/><path d="m2330.96 382.637h360.85v360.859h-360.85z" fill="#707e90" fill-rule="evenodd"/><path d="m2330.96 767.488h384.85v-408.855h-408.86v24.004 360.847 24.004zm336.85-48.008h-312.86v-312.847h312.86z" fill="#3d4445"/><path d="m2949.56 382.637h360.86v360.859h-360.86z" fill="#707e90" fill-rule="evenodd"/><path d="m2949.56 767.488h384.85v-408.855h-408.85v24.004 360.847 24.004zm336.86-48.008h-312.85v-312.847h312.85z" fill="#3d4445"/><path d="m442.793 742.52c45.93 45.925 109.379 74.343 179.465 74.343 70.082 0 133.531-28.418 179.461-74.343 45.933-45.926 74.34-109.375 74.34-179.465 0-70.078-28.407-133.535-74.34-179.461-45.93-45.93-109.379-74.336-179.461-74.336-70.086 0-133.535 28.406-179.465 74.336-45.926 45.926-74.34 109.383-74.34 179.461 0 70.09 28.414 133.539 74.34 179.465" fill="#e87b7f"/><path d="m425.82 759.492c25.512 25.508 56.133 46.121 90.289 60.274 32.813 13.593 68.676 21.093 106.149 21.093 37.469 0 73.328-7.5 106.144-21.093 34.157-14.153 64.774-34.766 90.286-60.274 25.507-25.508 46.128-56.133 60.277-90.281 13.59-32.816 21.098-68.684 21.098-106.156 0-37.469-7.504-73.328-21.098-106.153-14.149-34.14-34.77-64.765-60.277-90.269-25.512-25.52-56.129-46.137-90.286-60.285-32.816-13.594-68.675-21.094-106.144-21.094-37.473 0-73.336 7.5-106.149 21.094-34.156 14.148-64.777 34.765-90.289 60.285-25.507 25.504-46.129 56.129-60.269 90.281-13.598 32.813-21.098 68.672-21.098 106.141 0 37.472 7.5 73.34 21.098 106.156 14.14 34.148 34.762 64.773 60.269 90.281zm108.473 16.024c-27.965-11.582-53.246-28.68-74.531-49.961-21.289-21.289-38.383-46.571-49.961-74.532-11.18-26.98-17.348-56.687-17.348-87.968 0-31.278 6.168-60.985 17.348-87.957 11.578-27.961 28.672-53.254 49.961-74.532 21.285-21.289 46.566-38.378 74.531-49.972 26.977-11.168 56.684-17.34 87.965-17.34 31.273 0 60.98 6.172 87.961 17.34 27.961 11.594 53.25 28.683 74.531 49.972 21.285 21.278 38.387 46.571 49.969 74.532 11.176 26.972 17.344 56.679 17.344 87.957 0 31.281-6.172 60.988-17.344 87.968-11.582 27.961-28.684 53.243-49.969 74.532-21.281 21.281-46.57 38.379-74.531 49.961-26.981 11.172-56.688 17.343-87.961 17.343-31.281 0-60.988-6.171-87.965-17.343" fill="#3d4445"/><path d="m772.793 742.52c4.645 4.648 9.473 9.113 14.465 13.386 4.992-4.273 9.816-8.738 14.461-13.386 45.929-45.926 74.34-109.375 74.34-179.465 0-70.078-28.411-133.535-74.34-179.461-4.645-4.649-9.469-9.102-14.461-13.379-4.992 4.277-9.82 8.73-14.465 13.379-45.934 45.926-74.34 109.383-74.34 179.461 0 70.09 28.406 133.539 74.34 179.465" fill="#f2a284"/><path d="m755.824 759.492c1.184 1.184 3.801 3.645 7.828 7.371 3.297 3.047 5.973 5.45 8.043 7.231l15.563 13.316 15.558-13.316c2.067-1.77 4.735-4.164 8.024-7.207 4.055-3.762 6.691-6.242 7.848-7.395 50.265-50.273 81.371-119.726 81.371-196.437 0-37.469-7.504-73.328-21.098-106.153-14.145-34.148-34.766-64.765-60.273-90.269-4.711-4.719-10.012-9.594-15.872-14.613l-15.558-13.309-15.563 13.309c-2.07 1.781-4.746 4.179-8.043 7.238-4.027 3.719-6.644 6.18-7.828 7.375-25.511 25.504-46.133 56.129-60.273 90.269-13.598 32.825-21.098 68.684-21.098 106.153 0 37.472 7.5 73.34 21.098 106.156 14.14 34.148 34.762 64.762 60.273 90.281zm96.231-196.437c0 62.179-24.696 118.586-64.797 159.953-20.125-20.742-36.34-45.125-47.457-71.985-11.18-26.98-17.344-56.687-17.344-87.968 0-31.278 6.164-60.985 17.344-87.965 11.117-26.86 27.332-51.235 47.457-71.985 20.121 20.743 36.336 45.125 47.453 71.985 11.18 26.98 17.344 56.687 17.344 87.965" fill="#3d4445"/><g fill="#fff" font-family="Arial"><text font-size="2.86654" transform="matrix(10 0 0 -10 255.324 2018.68)"><tspan x="0 17.559822 33.103207 49.738827 55.816151 71.359535 88.919357 107.79546" y="0">ABC BANK</tspan></text><text font-size="1.00826" transform="matrix(10 0 0 -10 3277.884 919.47)"><tspan x="0 5.171618 10.343235" y="0">543</tspan></text></g></g></svg>